<svg width="26" height="25" viewBox="0 0 26 25" fill="none" xmlns="http://www.w3.org/2000/svg">
<g clip-path="url(#clip0_419_3094)">
<path d="M21.75 0H4.25C2.17893 0 0.5 1.67893 0.5 3.75V21.25C0.5 23.3211 2.17893 25 4.25 25H21.75C23.8211 25 25.5 23.3211 25.5 21.25V3.75C25.5 1.67893 23.8211 0 21.75 0Z" fill="#3B5998"/>
<path d="M14.5137 22.2656V7.66602C14.5137 6.64062 14.8066 5.95703 16.2227 5.95703H18.0781V2.88086C17.7363 2.83203 16.6621 2.73438 15.3926 2.73438C12.7559 2.73438 10.9492 4.3457 10.9492 7.32422V22.2656M17.9316 9.86328H7.92188V13.3789H17.4922" fill="white"/>
</g>
<defs>
<clipPath id="clip0_419_3094">
<rect width="25" height="25" fill="white" transform="translate(0.5)"/>
</clipPath>
</defs>
</svg>
