<svg width="17" height="17" viewBox="0 0 17 17" fill="none" xmlns="http://www.w3.org/2000/svg">
<path d="M6.08738 15.5184V13.0727C6.08738 12.4479 6.6238 11.9415 7.2857 11.9415H9.70675C10.0242 11.9415 10.329 12.0607 10.5539 12.2727C10.7787 12.4847 10.905 12.7727 10.905 13.0727V15.5184C10.9034 15.7784 11.0112 16.028 11.2048 16.212C11.3994 16.396 11.663 16.5 11.9383 16.5H13.5897C14.3611 16.5016 15.1013 16.2144 15.6469 15.7008C16.1935 15.1872 16.5 14.4896 16.5 13.7623V6.79342C16.5 6.20541 16.2238 5.6486 15.7463 5.27179L10.1286 1.04051C9.15178 0.2989 7.75136 0.3229 6.80315 1.09731L1.31432 5.27179C0.814114 5.6374 0.515158 6.19661 0.5 6.79342V13.7551C0.5 15.2712 1.80273 16.5 3.41031 16.5H5.0238C5.59559 16.5 6.06042 16.0648 6.06463 15.5256L6.08738 15.5184Z" fill="#0D0D0D"/>
</svg>
