<svg width="17" height="17" viewBox="0 0 17 17" fill="none" xmlns="http://www.w3.org/2000/svg">
<path fill-rule="evenodd" clip-rule="evenodd" d="M15.0413 3.64263C15.5289 3.64263 15.8486 3.81407 16.1684 4.18962C16.4882 4.56517 16.5441 5.104 16.4721 5.59303L15.7127 10.9487C15.5689 11.9782 14.7055 12.7366 13.6903 12.7366H4.96912C3.90595 12.7366 3.02663 11.9039 2.9387 10.827L2.20329 1.92735L0.996219 1.71509C0.676468 1.65794 0.45263 1.33954 0.508587 1.01297C0.564543 0.678246 0.87632 0.457817 1.20406 0.506801L3.11056 0.800709C3.38235 0.85051 3.58219 1.07829 3.60617 1.35587L3.75806 3.18462C3.78204 3.44669 3.98989 3.64263 4.24569 3.64263H15.0413ZM10.1971 7.88713H12.4113C12.7471 7.88713 13.0109 7.60955 13.0109 7.27483C13.0109 6.93193 12.7471 6.66252 12.4113 6.66252H10.1971C9.86131 6.66252 9.59752 6.93193 9.59752 7.27483C9.59752 7.60955 9.86131 7.88713 10.1971 7.88713Z" fill="#D7D7D7"/>
<path fill-rule="evenodd" clip-rule="evenodd" d="M2.79297 14.9778C2.79297 14.292 3.33654 13.7368 4.00801 13.7368C4.6715 13.7368 5.21508 14.292 5.21508 14.9778C5.21508 15.6554 4.6715 16.2105 4.00801 16.2105C3.33654 16.2105 2.79297 15.6554 2.79297 14.9778ZM11.786 14.9778C11.786 14.292 12.3295 13.7368 13.001 13.7368C13.6645 13.7368 14.2081 14.292 14.2081 14.9778C14.2081 15.6554 13.6645 16.2105 13.001 16.2105C12.3295 16.2105 11.786 15.6554 11.786 14.9778Z" fill="#7D7D7D"/>
</svg>
