<svg width="8" height="6" viewBox="0 0 8 6" fill="none" xmlns="http://www.w3.org/2000/svg">
<path d="M7.89344 1.43907L4.25726 5.07525C4.22349 5.10906 4.18339 5.13588 4.13924 5.15418C4.0951 5.17248 4.04778 5.1819 4 5.1819C3.95221 5.1819 3.9049 5.17248 3.86076 5.15418C3.81661 5.13588 3.77651 5.10906 3.74274 5.07525L0.10656 1.43907C0.0383309 1.37084 0 1.2783 0 1.18181C0 1.08532 0.0383309 0.992783 0.10656 0.924553C0.17479 0.856324 0.267329 0.817993 0.36382 0.817993C0.460311 0.817993 0.55285 0.856324 0.62108 0.924553L4 4.30393L7.37892 0.924553C7.4127 0.89077 7.45281 0.863971 7.49695 0.845687C7.54109 0.827403 7.5884 0.817993 7.63618 0.817993C7.68396 0.817993 7.73127 0.827403 7.77541 0.845687C7.81955 0.863971 7.85966 0.89077 7.89344 0.924553C7.92722 0.958337 7.95402 0.998445 7.97231 1.04259C7.99059 1.08673 8 1.13404 8 1.18181C8 1.22959 7.99059 1.2769 7.97231 1.32104C7.95402 1.36518 7.92722 1.40529 7.89344 1.43907Z" fill="black"/>
</svg>
