<svg width="15" height="15" viewBox="0 0 15 15" fill="none" xmlns="http://www.w3.org/2000/svg">
<g clip-path="url(#clip0_691_585)">
<path d="M10.9569 3.75195H3.39558C3.00392 3.75195 2.62721 3.91731 2.36208 4.20561C2.09695 4.4939 1.96371 4.88311 1.99644 5.27341L2.65152 13.0828C2.68103 13.4346 2.84039 13.7599 3.10025 13.9989C3.36009 14.2379 3.69765 14.3695 4.05064 14.3695H10.3018C10.6548 14.3695 10.9923 14.2379 11.2522 13.9989C11.512 13.7599 11.6714 13.4346 11.7009 13.0828L12.356 5.27338C12.3887 4.88311 12.2555 4.4939 11.9903 4.20561C11.7252 3.91731 11.3485 3.75195 10.9569 3.75195ZM11.3294 5.18727L10.6743 12.9967C10.6581 13.1904 10.4961 13.3393 10.3018 13.3393H4.05067C3.85629 13.3393 3.69435 13.1904 3.67812 12.9967L3.02303 5.18727C3.00473 4.96923 3.17677 4.78216 3.39558 4.78216H10.9569C11.1757 4.78216 11.3477 4.96923 11.3294 5.18727Z" fill="#7D7D7D"/>
<path d="M10.3019 14.3813H4.05074C3.69466 14.3813 3.35427 14.2486 3.0922 14.0076C2.8301 13.7666 2.66936 13.4384 2.63962 13.0836L1.98453 5.27426C1.95151 4.8806 2.08592 4.48806 2.3533 4.1973C2.62069 3.90652 3.00062 3.73975 3.39565 3.73975H10.9569C11.352 3.73975 11.7319 3.90652 11.9993 4.1973C12.2667 4.48804 12.4011 4.88057 12.368 5.27421L11.713 13.0836C11.6832 13.4384 11.5225 13.7665 11.2604 14.0076C10.9983 14.2486 10.6579 14.3813 10.3019 14.3813ZM3.39568 3.76382C3.00736 3.76382 2.63387 3.92775 2.37103 4.21361C2.10819 4.49942 1.97604 4.88529 2.00851 5.27226L2.66359 13.0816C2.69283 13.4304 2.85085 13.753 3.10848 13.9899C3.36608 14.2269 3.70072 14.3573 4.05074 14.3573H10.3019C10.6519 14.3573 10.9865 14.2268 11.2441 13.9899C11.5018 13.753 11.6598 13.4304 11.6891 13.0816L12.3441 5.27224C12.3766 4.88529 12.2444 4.49942 11.9816 4.21363C11.7188 3.9278 11.3453 3.76384 10.957 3.76384H3.39568V3.76382ZM10.3019 13.3511H4.05076C3.85177 13.3511 3.68286 13.1958 3.66624 12.9975L3.01115 5.18812C3.00216 5.08084 3.03879 4.97388 3.11165 4.89466C3.18452 4.81543 3.28804 4.76998 3.39568 4.76998H10.9569C11.0646 4.76998 11.1681 4.8154 11.241 4.89464C11.3138 4.97385 11.3505 5.08084 11.3415 5.18812L10.6864 12.9975C10.6698 13.1958 10.5009 13.3511 10.3019 13.3511ZM3.39568 4.79402C3.29475 4.79402 3.19767 4.83664 3.12935 4.91092C3.06103 4.9852 3.02669 5.08551 3.03513 5.18608L3.69022 12.9955C3.7058 13.1814 3.86418 13.3271 4.05079 13.3271H10.3019C10.4885 13.3271 10.6469 13.1814 10.6625 12.9955L11.3175 5.18608C11.326 5.08548 11.2916 4.98518 11.2233 4.9109C11.155 4.83661 11.0579 4.79402 10.957 4.79402H3.39568Z" fill="#7D7D7D"/>
<path d="M2.24095 3.19494H12.1106C12.3951 3.19494 12.6257 2.96432 12.6257 2.67983C12.6257 2.39535 12.3951 2.16473 12.1106 2.16473H10.2397V2.1415V1.63306C10.2397 0.858863 9.60991 0.229004 8.83571 0.229004H5.51592C4.74172 0.229004 4.11187 0.858863 4.11187 1.63306V2.1415V2.16473H2.24095C1.95646 2.16473 1.72585 2.39535 1.72585 2.67983C1.72585 2.96432 1.95646 3.19494 2.24095 3.19494ZM5.14205 1.63306C5.14205 1.42658 5.30942 1.25921 5.51589 1.25921H8.83571C9.04214 1.25921 9.20954 1.42658 9.20954 1.63306V2.1415H5.14205V1.63306Z" fill="#7D7D7D"/>
<path d="M12.1107 3.20726H2.24101C1.95034 3.20726 1.71388 2.9708 1.71388 2.68014C1.71388 2.3895 1.95034 2.15301 2.24101 2.15301H4.09988V1.63336C4.09988 0.852555 4.73512 0.217285 5.51598 0.217285H8.8358C9.61661 0.217285 10.2519 0.852555 10.2519 1.63336V2.15301H12.1107C12.4014 2.15301 12.6378 2.38947 12.6378 2.68014C12.6378 2.9708 12.4014 3.20726 12.1107 3.20726ZM2.24101 2.17706C1.96362 2.17706 1.73793 2.40275 1.73793 2.68014C1.73793 2.95755 1.96362 3.18322 2.24101 3.18322H12.1107C12.3881 3.18322 12.6138 2.95753 12.6138 2.68014C12.6138 2.40275 12.3881 2.17706 12.1107 2.17706H10.2278V1.63336C10.2278 0.865805 9.60333 0.241333 8.83577 0.241333H5.51598C4.74842 0.241333 4.12395 0.865805 4.12395 1.63336V2.17706H2.24101ZM9.22162 2.1538H5.13008V1.63336C5.13008 1.42059 5.30318 1.24749 5.51596 1.24749H8.83577C9.04855 1.24749 9.22162 1.42059 9.22162 1.63336V2.1538V2.1538ZM5.15413 2.12976H9.19757V1.63336C9.19757 1.43386 9.03527 1.27154 8.83577 1.27154H5.51598C5.31645 1.27154 5.15416 1.43386 5.15416 1.63336V2.12976H5.15413Z" fill="#7D7D7D"/>
<path d="M5.35752 6.76387C5.33876 6.47998 5.09323 6.26514 4.80959 6.28385C4.52571 6.30261 4.31079 6.54794 4.32957 6.8318L4.62868 11.3575C4.64667 11.6298 4.87315 11.8387 5.14215 11.8387C5.15357 11.8387 5.16506 11.8383 5.17663 11.8376C5.46049 11.8188 5.67541 11.5735 5.65665 11.2896L5.35752 6.76387Z" fill="#7D7D7D"/>
<path d="M5.14125 11.8505C4.86485 11.8505 4.63404 11.6343 4.61579 11.3582L4.31668 6.83241C4.3074 6.6919 4.35338 6.55622 4.44615 6.45029C4.53893 6.34436 4.66742 6.28095 4.8079 6.27164C5.09982 6.25264 5.3496 6.47513 5.36863 6.76286L5.66773 11.2886C5.6869 11.5786 5.46655 11.8302 5.17651 11.8494C5.1647 11.8501 5.15294 11.8505 5.14125 11.8505ZM4.84309 6.29453C4.83195 6.29453 4.82077 6.29492 4.80952 6.29564C4.67543 6.30451 4.55283 6.36504 4.46426 6.46611C4.37572 6.56721 4.33183 6.69671 4.3407 6.8308L4.63981 11.3565C4.65794 11.6312 4.8969 11.8434 5.17497 11.8254C5.45176 11.8071 5.66206 11.567 5.64378 11.2902L5.34467 6.76445C5.32726 6.50096 5.10694 6.29453 4.84309 6.29453Z" fill="#7D7D7D"/>
<path d="M7.17576 6.28271C6.89128 6.28271 6.66066 6.51333 6.66066 6.79782V11.3236C6.66066 11.608 6.89128 11.8387 7.17576 11.8387C7.46027 11.8387 7.69087 11.608 7.69087 11.3236V6.79782C7.69089 6.51333 7.46027 6.28271 7.17576 6.28271Z" fill="#7D7D7D"/>
<path d="M7.17592 11.8505C6.88525 11.8505 6.64879 11.614 6.64879 11.3234V6.79764C6.64879 6.50697 6.88525 6.27051 7.17592 6.27051C7.46658 6.27051 7.70304 6.50697 7.70304 6.79764V11.3234C7.70307 11.614 7.46661 11.8505 7.17592 11.8505ZM7.17592 6.29456C6.89852 6.29456 6.67284 6.52024 6.67284 6.79764V11.3234C6.67284 11.6008 6.89852 11.8265 7.17592 11.8265C7.45333 11.8265 7.67899 11.6008 7.67899 11.3234V6.79764C7.67902 6.52022 7.45333 6.29456 7.17592 6.29456Z" fill="#7D7D7D"/>
<path d="M9.54277 6.28385C9.25908 6.26514 9.01357 6.47998 8.99484 6.76387L8.69573 11.2896C8.677 11.5735 8.89187 11.8188 9.17575 11.8376C9.18734 11.8383 9.19881 11.8387 9.21023 11.8387C9.47923 11.8387 9.70571 11.6298 9.72375 11.3576L10.0228 6.83183C10.0416 6.54794 9.82665 6.30261 9.54277 6.28385Z" fill="#7D7D7D"/>
<path d="M9.21046 11.8505C9.1988 11.8505 9.18706 11.8501 9.17521 11.8494C8.88517 11.8302 8.66482 11.5786 8.68396 11.2886L8.98307 6.76288C9.00206 6.47514 9.25209 6.25254 9.54379 6.27165C9.6843 6.28094 9.81276 6.34437 9.90554 6.45028C9.99831 6.55619 10.0443 6.69189 10.035 6.8324L9.73595 11.3581C9.71768 11.6342 9.48684 11.8505 9.21046 11.8505ZM9.50861 6.29452C9.24475 6.29452 9.02445 6.50092 9.00706 6.76444L8.70796 11.2902C8.68968 11.567 8.89998 11.8071 9.17677 11.8254C9.45584 11.8434 9.69377 11.6312 9.71195 11.3566L10.011 6.83081C10.0199 6.69672 9.97602 6.56722 9.88745 6.46613C9.79889 6.36503 9.67629 6.3045 9.5422 6.29565C9.53095 6.29491 9.51974 6.29452 9.50861 6.29452Z" fill="#7D7D7D"/>
</g>
<defs>
<clipPath id="clip0_691_585">
<rect width="14.1642" height="14.1642" fill="white" transform="translate(0.222916 0.217285)"/>
</clipPath>
</defs>
</svg>
