<svg width="28" height="21" viewBox="0 0 28 21" fill="none" xmlns="http://www.w3.org/2000/svg">
<path d="M25.75 0.75H1.75C1.28587 0.75 0.840752 0.934375 0.512563 1.26256C0.184375 1.59075 0 2.03587 0 2.5V18.5C0 18.9641 0.184375 19.4092 0.512563 19.7374C0.840752 20.0656 1.28587 20.25 1.75 20.25H25.75C26.2141 20.25 26.6592 20.0656 26.9874 19.7374C27.3156 19.4092 27.5 18.9641 27.5 18.5V2.5C27.5 2.03587 27.3156 1.59075 26.9874 1.26256C26.6592 0.934375 26.2141 0.75 25.75 0.75ZM1.75 2.25H25.75C25.8163 2.25 25.8799 2.27634 25.9268 2.32322C25.9737 2.37011 26 2.4337 26 2.5V5.75H1.5V2.5C1.5 2.4337 1.52634 2.37011 1.57322 2.32322C1.62011 2.27634 1.6837 2.25 1.75 2.25ZM25.75 18.75H1.75C1.6837 18.75 1.62011 18.7237 1.57322 18.6768C1.52634 18.6299 1.5 18.5663 1.5 18.5V7.25H26V18.5C26 18.5663 25.9737 18.6299 25.9268 18.6768C25.8799 18.7237 25.8163 18.75 25.75 18.75ZM23.5 15.5C23.5 15.6989 23.421 15.8897 23.2803 16.0303C23.1397 16.171 22.9489 16.25 22.75 16.25H18.75C18.5511 16.25 18.3603 16.171 18.2197 16.0303C18.079 15.8897 18 15.6989 18 15.5C18 15.3011 18.079 15.1103 18.2197 14.9697C18.3603 14.829 18.5511 14.75 18.75 14.75H22.75C22.9489 14.75 23.1397 14.829 23.2803 14.9697C23.421 15.1103 23.5 15.3011 23.5 15.5ZM15.5 15.5C15.5 15.6989 15.421 15.8897 15.2803 16.0303C15.1397 16.171 14.9489 16.25 14.75 16.25H12.75C12.5511 16.25 12.3603 16.171 12.2197 16.0303C12.079 15.8897 12 15.6989 12 15.5C12 15.3011 12.079 15.1103 12.2197 14.9697C12.3603 14.829 12.5511 14.75 12.75 14.75H14.75C14.9489 14.75 15.1397 14.829 15.2803 14.9697C15.421 15.1103 15.5 15.3011 15.5 15.5Z" fill="#343434"/>
</svg>
