<svg width="30" height="24" viewBox="0 0 30 24" fill="none" xmlns="http://www.w3.org/2000/svg">
<path d="M28.39 14.5813C28.0476 14.3175 27.6489 14.1365 27.225 14.0524C26.801 13.9683 26.3634 13.9833 25.9463 14.0963L20.2913 15.3963C20.4766 14.9044 20.54 14.375 20.4758 13.8533C20.4116 13.3316 20.2219 12.8333 19.9229 12.401C19.6238 11.9688 19.2244 11.6155 18.7589 11.3715C18.2934 11.1274 17.7756 11 17.25 11H10.9925C10.4999 10.9986 10.0118 11.095 9.55673 11.2836C9.10162 11.4722 8.68848 11.7493 8.34125 12.0988L5.44 15H1.75C1.28587 15 0.840752 15.1844 0.512563 15.5126C0.184374 15.8408 0 16.2859 0 16.75V21.75C0 22.2141 0.184374 22.6593 0.512563 22.9874C0.840752 23.3156 1.28587 23.5 1.75 23.5H14.75C14.8115 23.5 14.8728 23.4925 14.9325 23.4775L22.9325 21.4775C22.9704 21.4675 23.0075 21.4549 23.0438 21.44L27.8962 19.375L27.9375 19.3563C28.3665 19.142 28.734 18.822 29.0052 18.4265C29.2764 18.031 29.4425 17.573 29.4877 17.0955C29.533 16.6181 29.456 16.137 29.2639 15.6976C29.0719 15.2581 28.7711 14.8748 28.39 14.5838V14.5813ZM1.5 21.75V16.75C1.5 16.6837 1.52634 16.6201 1.57322 16.5732C1.62011 16.5263 1.6837 16.5 1.75 16.5H5V22H1.75C1.6837 22 1.62011 21.9737 1.57322 21.9268C1.52634 21.8799 1.5 21.8163 1.5 21.75ZM27.285 18L22.51 20.0338L14.6575 22H6.5V16.0613L9.40125 13.1588C9.60974 12.9492 9.85773 12.783 10.1309 12.67C10.404 12.5569 10.6969 12.4991 10.9925 12.5H17.25C17.7141 12.5 18.1592 12.6844 18.4874 13.0126C18.8156 13.3408 19 13.7859 19 14.25C19 14.7141 18.8156 15.1592 18.4874 15.4874C18.1592 15.8156 17.7141 16 17.25 16H13.75C13.5511 16 13.3603 16.079 13.2197 16.2197C13.079 16.3603 13 16.5511 13 16.75C13 16.9489 13.079 17.1397 13.2197 17.2803C13.3603 17.421 13.5511 17.5 13.75 17.5H17.75C17.8064 17.5001 17.8625 17.4938 17.9175 17.4813L26.2925 15.555L26.3225 15.5475C26.6377 15.4616 26.9736 15.4951 27.2656 15.6417C27.5575 15.7883 27.7851 16.0376 27.9044 16.3418C28.0238 16.6459 28.0266 16.9834 27.9122 17.2895C27.7979 17.5956 27.5745 17.8486 27.285 18ZM20.25 8.5C20.5559 8.49983 20.861 8.46715 21.16 8.4025C21.3849 9.20132 21.8388 9.9168 22.4657 10.4607C23.0925 11.0045 23.8648 11.353 24.6874 11.463C25.5099 11.573 26.3467 11.4399 27.0944 11.0799C27.8422 10.7199 28.4682 10.1489 28.8952 9.43727C29.3222 8.72567 29.5315 7.90462 29.4973 7.07544C29.4631 6.24627 29.1869 5.44524 28.7028 4.77121C28.2186 4.09717 27.5478 3.57963 26.7729 3.28242C25.9981 2.98522 25.1532 2.92137 24.3425 3.09875C24.1283 2.33739 23.7058 1.65093 23.1227 1.11658C22.5395 0.582236 21.8189 0.221214 21.0417 0.0741329C20.2646 -0.0729484 19.4618 -0.000253201 18.7238 0.28404C17.9857 0.568333 17.3416 1.05294 16.864 1.68335C16.3863 2.31376 16.094 3.06495 16.02 3.85241C15.946 4.63987 16.0933 5.43235 16.4451 6.1407C16.797 6.84905 17.3395 7.44517 18.0117 7.86197C18.6839 8.27878 19.4591 8.49974 20.25 8.5ZM28 7.25C28 7.7939 27.8387 8.32558 27.5365 8.77782C27.2344 9.23005 26.8049 9.58253 26.3024 9.79067C25.7999 9.99881 25.2469 10.0533 24.7135 9.94716C24.1801 9.84105 23.6901 9.57914 23.3055 9.19454C22.9209 8.80995 22.659 8.31995 22.5528 7.7865C22.4467 7.25305 22.5012 6.70012 22.7093 6.19762C22.9175 5.69512 23.2699 5.26563 23.7222 4.96346C24.1744 4.66129 24.7061 4.5 25.25 4.5C25.9793 4.5 26.6788 4.78973 27.1945 5.30546C27.7103 5.82118 28 6.52066 28 7.25ZM20.25 1.5C20.8813 1.49925 21.4936 1.71635 21.9834 2.11464C22.4733 2.51294 22.8107 3.06804 22.9387 3.68625C22.3951 4.03877 21.9392 4.51093 21.606 5.06664C21.2728 5.62234 21.0711 6.24688 21.0163 6.8925C20.6382 7.00142 20.2412 7.02796 19.852 6.97033C19.4629 6.9127 19.0906 6.77224 18.7604 6.55843C18.4301 6.34462 18.1496 6.06245 17.9377 5.73096C17.7259 5.39947 17.5876 5.02637 17.5322 4.63687C17.4769 4.24737 17.5058 3.85053 17.6169 3.47314C17.728 3.09575 17.9188 2.7466 18.1765 2.44926C18.4341 2.15193 18.7525 1.91332 19.1102 1.74956C19.4679 1.5858 19.8566 1.5007 20.25 1.5Z" fill="#0D0D0D"/>
</svg>
