<svg width="87" height="87" viewBox="0 0 87 87" fill="none" xmlns="http://www.w3.org/2000/svg">
<path d="M62.5982 31.0941C62.9093 31.4049 63.1561 31.7739 63.3245 32.1802C63.4929 32.5864 63.5796 33.0218 63.5796 33.4615C63.5796 33.9013 63.4929 34.3367 63.3245 34.7429C63.1561 35.1491 62.9093 35.5182 62.5982 35.8289L39.1751 59.252C38.8643 59.5631 38.4953 59.8099 38.0891 59.9783C37.6829 60.1467 37.2474 60.2334 36.8077 60.2334C36.368 60.2334 35.9325 60.1467 35.5263 59.9783C35.1201 59.8099 34.7511 59.5631 34.4403 59.252L24.4018 49.2135C23.774 48.5857 23.4212 47.7341 23.4212 46.8461C23.4212 45.9582 23.774 45.1066 24.4018 44.4787C25.0297 43.8509 25.8813 43.4981 26.7692 43.4981C27.6572 43.4981 28.5088 43.8509 29.1366 44.4787L36.8077 52.154L57.8634 31.0941C58.1741 30.783 58.5432 30.5362 58.9494 30.3678C59.3556 30.1994 59.791 30.1127 60.2308 30.1127C60.6705 30.1127 61.1059 30.1994 61.5121 30.3678C61.9184 30.5362 62.2874 30.783 62.5982 31.0941ZM87 43.5C87 52.1035 84.4488 60.5137 79.6689 67.6673C74.8891 74.8208 68.0953 80.3963 60.1467 83.6887C52.1981 86.9811 43.4518 87.8426 35.0136 86.1641C26.5754 84.4857 18.8245 80.3427 12.7409 74.2591C6.65729 68.1755 2.51432 60.4246 0.83586 51.9864C-0.842597 43.5482 0.0188479 34.8018 3.31126 26.8533C6.60367 18.9047 12.1792 12.1109 19.3327 7.33107C26.4862 2.55123 34.8965 0 43.5 0C55.0332 0.0121792 66.0905 4.59911 74.2457 12.7543C82.4009 20.9095 86.9878 31.9668 87 43.5ZM80.3077 43.5C80.3077 36.2201 78.149 29.1037 74.1045 23.0507C70.06 16.9977 64.3114 12.28 57.5857 9.49412C50.86 6.70824 43.4592 5.97932 36.3192 7.39956C29.1792 8.81979 22.6207 12.3254 17.473 17.473C12.3254 22.6207 8.81981 29.1792 7.39957 36.3192C5.97934 43.4592 6.70826 50.86 9.49414 57.5857C12.28 64.3114 16.9978 70.06 23.0508 74.1045C29.1037 78.1489 36.2201 80.3077 43.5 80.3077C53.2586 80.2966 62.6144 76.4151 69.5147 69.5147C76.4151 62.6143 80.2966 53.2586 80.3077 43.5Z" fill="black"/>
</svg>
