<svg width="22" height="28" viewBox="0 0 22 28" fill="none" xmlns="http://www.w3.org/2000/svg">
<path d="M11 6.10842C10.0387 6.10842 9.09897 6.39204 8.29967 6.92341C7.50037 7.45478 6.87739 8.21003 6.50952 9.09366C6.14164 9.9773 6.04538 10.9496 6.23293 11.8877C6.42047 12.8257 6.88338 13.6874 7.56313 14.3637C8.24288 15.04 9.10893 15.5006 10.0518 15.6872C10.9946 15.8738 11.9719 15.778 12.86 15.412C13.7482 15.046 14.5073 14.4262 15.0413 13.6309C15.5754 12.8357 15.8605 11.9007 15.8605 10.9443C15.8605 9.66171 15.3484 8.4317 14.4369 7.52481C13.5254 6.61791 12.2891 6.10842 11 6.10842ZM11 14.253C10.3423 14.253 9.6993 14.0589 9.15241 13.6954C8.60552 13.3318 8.17927 12.815 7.92756 12.2105C7.67586 11.6059 7.61 10.9406 7.73832 10.2988C7.86664 9.65693 8.18337 9.06737 8.64846 8.60463C9.11355 8.1419 9.70611 7.82677 10.3512 7.6991C10.9963 7.57144 11.665 7.63696 12.2726 7.88739C12.8803 8.13782 13.3997 8.56191 13.7651 9.10603C14.1305 9.65014 14.3256 10.2899 14.3256 10.9443C14.3256 11.8218 13.9752 12.6634 13.3515 13.2839C12.7279 13.9044 11.882 14.253 11 14.253ZM11 0C8.08366 0.00336804 5.28773 1.1575 3.22556 3.20922C1.1634 5.26094 0.00338519 8.04269 0 10.9443C0 14.8778 1.83419 19.0557 5.3043 23.0262C6.87054 24.8271 8.63328 26.449 10.56 27.862C10.689 27.9518 10.8426 28 11 28C11.1574 28 11.311 27.9518 11.44 27.862C13.3667 26.449 15.1295 24.8271 16.6957 23.0262C20.1658 19.0557 22 14.8816 22 10.9443C21.9966 8.04269 20.8366 5.26094 18.7744 3.20922C16.7123 1.1575 13.9163 0.00336804 11 0ZM11 26.2802C9.0814 24.8066 1.53488 18.5314 1.53488 10.9443C1.53488 8.44667 2.5321 6.05138 4.30715 4.28533C6.08221 2.51927 8.4897 1.52711 11 1.52711C13.5103 1.52711 15.9178 2.51927 17.6928 4.28533C19.4679 6.05138 20.4651 8.44667 20.4651 10.9443C20.4651 18.5314 12.9186 24.8066 11 26.2802Z" fill="black"/>
</svg>
