<svg width="18" height="18" viewBox="0 0 18 18" fill="none" xmlns="http://www.w3.org/2000/svg">
<path d="M14.9966 8.247H16.4962C16.4962 4.4005 13.5922 1.49951 9.74046 1.49951V2.99912C12.7862 2.99912 14.9966 5.20579 14.9966 8.247Z" fill="#0D0D0D"/>
<path d="M9.748 5.99826C11.3248 5.99826 11.9974 6.67083 11.9974 8.24767H13.497C13.497 5.82955 12.1661 4.49865 9.748 4.49865V5.99826ZM12.3138 10.0794C12.1698 9.94849 11.9804 9.87865 11.7858 9.88467C11.5912 9.89068 11.4066 9.97208 11.2709 10.1117L9.47657 11.957C9.04468 11.8745 8.17641 11.6038 7.28264 10.7123C6.38888 9.81776 6.1182 8.94724 6.03797 8.51835L7.88174 6.72332C8.02151 6.5877 8.10303 6.40302 8.10905 6.20836C8.11507 6.0137 8.04511 5.82433 7.91398 5.68034L5.14345 2.63389C5.01227 2.48944 4.82994 2.40183 4.6352 2.38965C4.44046 2.37747 4.24864 2.44168 4.10048 2.56866L2.4734 3.96404C2.34377 4.09414 2.2664 4.2673 2.25596 4.45066C2.24471 4.63811 2.03027 9.07845 5.47337 12.5231C8.47708 15.526 12.2396 15.7457 13.2758 15.7457C13.4273 15.7457 13.5203 15.7412 13.545 15.7397C13.7283 15.7294 13.9014 15.6517 14.0309 15.5215L15.4255 13.8937C15.5526 13.7456 15.6169 13.5539 15.6049 13.3591C15.5928 13.1644 15.5054 12.982 15.361 12.8507L12.3138 10.0794Z" fill="#0D0D0D"/>
</svg>
