<svg width="14" height="16" viewBox="0 0 14 16" fill="none" xmlns="http://www.w3.org/2000/svg">
<path d="M6.99763 0.119629C5.35762 0.121564 3.78534 0.77391 2.62568 1.93357C1.46602 3.09323 0.813678 4.66551 0.811744 6.30551C0.809779 7.64572 1.24756 8.94957 2.05792 10.017C2.05792 10.017 2.22662 10.2392 2.25418 10.2712L6.99763 15.8655L11.7433 10.2684C11.7681 10.2386 11.9373 10.017 11.9373 10.017L11.9379 10.0154C12.7479 8.94835 13.1854 7.64511 13.1835 6.30551C13.1816 4.66551 12.5292 3.09323 11.3696 1.93357C10.2099 0.77391 8.63763 0.121564 6.99763 0.119629ZM6.99763 8.55492C6.55273 8.55492 6.11783 8.423 5.74792 8.17583C5.37801 7.92866 5.08969 7.57735 4.91944 7.16632C4.74919 6.7553 4.70464 6.30302 4.79144 5.86667C4.87823 5.43033 5.09247 5.02952 5.40705 4.71494C5.72164 4.40035 6.12244 4.18612 6.55879 4.09932C6.99513 4.01253 7.44741 4.05707 7.85844 4.22733C8.26946 4.39758 8.62077 4.68589 8.86794 5.05581C9.11511 5.42572 9.24704 5.86062 9.24704 6.30551C9.24629 6.90186 9.00906 7.47358 8.58738 7.89526C8.16569 8.31695 7.59398 8.55418 6.99763 8.55492Z" fill="#0D0D0D"/>
</svg>
